<svg width="41" height="40" viewBox="0 0 41 40" fill="none" xmlns="http://www.w3.org/2000/svg">
<g id="noun-kunai-2336755 1" clip-path="url(#clip0_128_3677)">
<g id="Group">
<path id="Vector" d="M9.0801 35.231C9.08142 35.9537 9.36797 36.646 9.87673 37.1558C10.3855 37.666 11.0751 37.9521 11.7936 37.9511C12.512 37.9502 13.2011 37.6627 13.7085 37.1512C14.2163 36.64 14.5012 35.947 14.5005 35.2246C14.5002 34.5023 14.2146 33.8096 13.7062 33.2987C13.1981 32.7882 12.5088 32.5015 11.7903 32.5015C11.0711 32.5021 10.3815 32.7902 9.8731 33.302C9.36498 33.8139 9.07978 34.5079 9.0801 35.231ZM13.0892 35.231C13.0879 35.5771 12.95 35.9084 12.7058 36.1523C12.4619 36.3962 12.1314 36.5328 11.787 36.5318C11.443 36.5311 11.1132 36.3929 10.8703 36.1477C10.6274 35.9028 10.4912 35.5705 10.4918 35.2246C10.4922 34.8785 10.629 34.5468 10.8726 34.3026C11.1161 34.0581 11.4463 33.9205 11.7903 33.9205C12.1356 33.9211 12.4662 34.0594 12.7097 34.3053C12.9536 34.5511 13.0898 34.8841 13.0892 35.231Z" fill="#E9E9E9"/>
<path id="Vector_2" d="M19.248 16.4662C19.2463 16.4517 19.2421 16.4378 19.2394 16.4233H19.2398C19.2322 16.3807 19.2207 16.3391 19.2056 16.2985C19.202 16.289 19.2017 16.2787 19.1974 16.2692L12.4387 0.435031C12.4357 0.427771 12.4298 0.422491 12.4265 0.415561C12.4036 0.366061 12.375 0.319533 12.3415 0.276633C12.3346 0.268054 12.3291 0.258813 12.3218 0.250564C12.2821 0.205024 12.2368 0.164436 12.1873 0.130441C12.1777 0.123841 12.1676 0.118891 12.1577 0.112621C12.1131 0.0852309 12.0658 0.0627914 12.0166 0.0459612C12.0051 0.0420012 11.9946 0.0373813 11.9828 0.0337512C11.9293 0.0179111 11.8744 0.0083411 11.8186 0.00570109C11.8121 0.00537103 11.8058 0.0066911 11.7993 0.0066911C11.796 0.0066911 11.793 0.00537109 11.7898 0.00537109C11.7832 0.00537109 11.777 0.00801104 11.7704 0.0083411V0.0080111C11.7116 0.00900113 11.6532 0.017581 11.5964 0.0340809C11.5905 0.0357309 11.5846 0.0367208 11.5787 0.0387009C11.5173 0.0578407 11.4589 0.0852309 11.4047 0.120541L11.3939 0.128791V0.129121C11.347 0.161791 11.3043 0.199742 11.2666 0.242975C11.2584 0.252216 11.2501 0.260465 11.2423 0.270035C11.2035 0.317886 11.1714 0.370355 11.1461 0.426459C11.1448 0.429429 11.1422 0.431739 11.1408 0.435038L4.38279 16.27C4.37984 16.2769 4.37951 16.2845 4.37688 16.2915C4.35916 16.337 4.34603 16.3842 4.33815 16.432C4.33651 16.4416 4.33323 16.4509 4.33224 16.4604L4.32995 16.471C4.32437 16.5248 4.32502 16.5786 4.33159 16.632C4.3329 16.6446 4.33651 16.6568 4.33881 16.6693V16.669C4.34636 16.7129 4.35785 16.7561 4.37327 16.7977C4.37918 16.8135 4.38509 16.8284 4.39198 16.8439C4.41299 16.8904 4.43892 16.9346 4.46912 16.9756C4.47207 16.9798 4.47371 16.9848 4.47667 16.9888L9.69104 23.6433V25.3243C9.69071 25.3305 9.68907 25.3361 9.68907 25.3424C9.68907 25.3487 9.69071 25.3543 9.69104 25.3606V27.3353C9.69071 27.3415 9.68907 27.3472 9.68907 27.3534C9.68907 27.3597 9.69071 27.3653 9.69104 27.3716V29.3463C9.69071 29.3526 9.68907 29.3582 9.68907 29.3645C9.68907 29.3707 9.69071 29.3763 9.69104 29.3826V30.9567C9.55844 31.0224 9.42747 31.0937 9.29617 31.1742L9.2965 31.1745C8.11784 31.9068 7.31663 33.1205 7.1032 34.497C6.88984 35.8734 7.2857 37.2746 8.18674 38.3329C9.08811 39.3908 10.4043 40 11.7898 40C13.1752 40 14.4918 39.3908 15.3928 38.3329C16.2939 37.2746 16.6901 35.8734 16.4766 34.497C16.2633 33.1205 15.4621 31.9068 14.2833 31.1745L14.281 31.1729C14.1514 31.093 14.0207 31.0221 13.8885 30.9567V29.3829C13.8888 29.3767 13.8904 29.3707 13.8904 29.3645C13.8904 29.3582 13.8888 29.3522 13.8885 29.346V27.3719C13.8888 27.3657 13.8904 27.3597 13.8904 27.3534C13.8904 27.3472 13.8888 27.3412 13.8885 27.335V25.3609C13.8888 25.3546 13.8904 25.3487 13.8904 25.3424C13.8904 25.3362 13.8888 25.3302 13.8885 25.324V23.643L19.1032 16.9885C19.1084 16.9815 19.111 16.9733 19.116 16.9663L19.1163 16.9667C19.1435 16.9287 19.1672 16.8885 19.1869 16.8459C19.1934 16.8314 19.2 16.8172 19.2056 16.8023C19.2233 16.7561 19.2361 16.7083 19.244 16.6591C19.245 16.6519 19.2476 16.6453 19.2486 16.638H19.2482C19.2548 16.5872 19.2561 16.536 19.2515 16.4852C19.2512 16.4789 19.2489 16.473 19.2479 16.4667L19.248 16.4662ZM11.8479 30.4662C11.8286 30.4659 11.8095 30.462 11.7898 30.462C11.7711 30.462 11.7527 30.4659 11.734 30.4662C11.5535 30.4692 11.373 30.4824 11.1938 30.5058C11.1636 30.5098 11.1327 30.5082 11.1028 30.5124V30.0735H12.4769V30.5124C12.4457 30.5078 12.4138 30.5095 12.3827 30.5055C12.2054 30.4824 12.0268 30.4692 11.8479 30.4662ZM11.1028 26.6432V26.0515H12.4769V26.6432H11.1028ZM12.4769 28.0625V28.6542H11.1028V28.0625H12.4769ZM11.1028 24.6322V24.0943H12.4769V24.6322H11.1028ZM12.3672 3.86612L17.5165 15.9307L11.8509 16.4495L12.3672 3.86612ZM10.4385 16.4402L6.05593 15.9491L10.9266 4.53668L10.4385 16.4402ZM10.4733 17.872L11.0018 22.6742H10.7306L6.63031 17.4414L10.4733 17.872ZM12.8497 22.6742H12.4223L11.8932 17.8707L16.9789 17.4048L12.8497 22.6742ZM15.1217 35.2297H15.1214C15.129 36.1818 14.7354 37.0925 14.0379 37.7367C13.3407 38.3805 12.4045 38.6977 11.4619 38.6095C10.5192 38.5211 9.65756 38.0357 9.09037 37.2734C8.52318 36.5111 8.30359 35.5429 8.48576 34.6086C8.66793 33.6744 9.23512 32.8616 10.0465 32.3709C10.8582 31.8806 11.8383 31.7581 12.7446 32.0347C12.8099 32.0545 12.8765 32.0647 12.9408 32.0885C13.5816 32.3234 14.1346 32.7508 14.5246 33.3131C14.9149 33.8751 15.1233 34.5443 15.1213 35.2298L15.1217 35.2297Z" fill="#E9E9E9"/>
<path id="Vector_3" d="M31.9693 4.76902C31.968 4.04632 31.6814 3.35397 31.1726 2.84414C30.6639 2.33395 29.9742 2.04784 29.2558 2.04883C28.5373 2.04982 27.8483 2.33725 27.3409 2.84876C26.8331 3.35993 26.5482 4.05294 26.5488 4.77533C26.5492 5.4977 26.8347 6.19037 27.3432 6.70123C27.8513 7.21174 28.5406 7.49851 29.2591 7.49851C29.9783 7.49785 30.6679 7.20975 31.1763 6.69792C31.6844 6.18609 31.9696 5.49208 31.9693 4.76902ZM27.9602 4.76902C27.9615 4.42284 28.0994 4.09153 28.3436 3.84768C28.5874 3.60381 28.918 3.46719 29.2623 3.46817C29.6063 3.46883 29.9362 3.6071 30.1791 3.8523C30.422 4.09716 30.5582 4.42947 30.5575 4.77533C30.5572 5.1215 30.4203 5.45315 30.1768 5.69735C29.9332 5.94187 29.603 6.07948 29.259 6.07948C28.9137 6.07882 28.5832 5.94056 28.3397 5.6947C28.0958 5.44885 27.9595 5.11584 27.9602 4.76902Z" fill="#E9E9E9"/>
<path id="Vector_4" d="M21.8002 23.5338C21.8019 23.5476 21.8058 23.5612 21.8081 23.575V23.5754C21.8156 23.6193 21.8275 23.6625 21.8435 23.7044C21.8468 23.713 21.8472 23.7222 21.8508 23.7308L28.6095 39.5649C28.6124 39.5722 28.6184 39.5775 28.6216 39.5844C28.6446 39.6339 28.6732 39.6804 28.7066 39.7233C28.7135 39.7319 28.7191 39.7411 28.7263 39.7494C28.7661 39.7949 28.8114 39.8355 28.8609 39.8695C28.8704 39.8761 28.8806 39.8811 28.8905 39.8873C28.9351 39.9147 28.9824 39.9372 29.0319 39.954C29.0434 39.958 29.0539 39.9626 29.0657 39.9662C29.1189 39.982 29.1737 39.9916 29.2295 39.9943C29.2391 39.9946 29.2492 39.9949 29.2591 39.9949H29.2587C29.3214 39.9943 29.3835 39.9847 29.4435 39.9672C29.4563 39.9636 29.4685 39.9603 29.4806 39.956H29.481C29.5391 39.9372 29.5949 39.9111 29.6464 39.8778L29.648 39.8764C29.6976 39.8425 29.7429 39.8019 29.7823 39.7563C29.7908 39.7468 29.7994 39.7375 29.8072 39.7273H29.8076C29.8463 39.6794 29.8788 39.6266 29.9041 39.5699L29.9073 39.5649L36.6657 23.7299H36.6654C36.6913 23.6682 36.7084 23.6029 36.7163 23.5362L36.7182 23.529C36.7238 23.4752 36.7232 23.4214 36.7163 23.3679C36.715 23.3554 36.7114 23.3435 36.7091 23.331H36.7094C36.7018 23.2871 36.6903 23.2439 36.6749 23.2023C36.669 23.1868 36.6631 23.1716 36.6562 23.1564C36.6352 23.1096 36.6093 23.0653 36.5791 23.0244C36.5761 23.0205 36.5745 23.0155 36.5715 23.0112L31.3572 16.3567V14.6757C31.3575 14.6694 31.3591 14.6635 31.3591 14.6572C31.3591 14.651 31.3575 14.645 31.3572 14.6388V12.6647C31.3575 12.6584 31.3591 12.6525 31.3591 12.6462C31.3591 12.64 31.3575 12.634 31.3572 12.6277V10.6537C31.3575 10.6474 31.3591 10.6415 31.3591 10.6352C31.3591 10.6289 31.3575 10.623 31.3572 10.6167V9.04295C31.4898 8.97728 31.6207 8.906 31.752 8.82548H31.7517C32.9304 8.09321 33.7316 6.87948 33.945 5.50304C34.1584 4.12661 33.7625 2.72542 32.8615 1.66713C31.9601 0.609187 30.6439 0 29.2584 0C27.8729 0 26.5564 0.609178 25.6554 1.66713C24.7543 2.72542 24.3581 4.12661 24.5716 5.50304C24.7849 6.87948 25.5861 8.09321 26.7649 8.82548L26.7672 8.82713C26.8968 8.90699 27.0275 8.97795 27.1597 9.04328V10.6171C27.1594 10.6233 27.1578 10.6289 27.1578 10.6352C27.1578 10.6415 27.1594 10.6471 27.1597 10.6534V12.6281C27.1594 12.6344 27.1578 12.64 27.1578 12.6462C27.1578 12.6525 27.1594 12.6581 27.1597 12.6644V14.6391C27.1594 14.6454 27.1578 14.651 27.1578 14.6573C27.1578 14.6635 27.1594 14.6691 27.1597 14.6754V16.3567L21.945 23.0112C21.9398 23.0182 21.9372 23.0264 21.9322 23.0334H21.9319C21.9047 23.071 21.881 23.1116 21.8617 23.1538C21.8551 23.1683 21.8485 23.1825 21.8429 23.1977H21.8426C21.8249 23.2439 21.8121 23.2918 21.8042 23.3406C21.8032 23.3479 21.8006 23.3548 21.7996 23.362H21.7999C21.7934 23.4129 21.7921 23.464 21.7967 23.5148C21.797 23.5214 21.7993 23.527 21.8003 23.5333L21.8002 23.5338ZM29.2584 9.53795C29.4652 9.5363 29.6716 9.52112 29.8768 9.49241C29.8994 9.48944 29.9227 9.49076 29.9454 9.48746V9.92636H28.5714V9.48746C28.5943 9.49076 28.618 9.48944 28.641 9.49241C28.8454 9.52112 29.0516 9.5363 29.2584 9.53795ZM29.9454 13.3567V13.9484H28.5714V13.3567H29.9454ZM28.5714 11.9374V11.3457H29.9454V11.9374H28.5714ZM29.9454 15.3677V15.9056L28.5714 15.9059V15.3677H29.9454ZM28.681 36.1338L23.5317 24.0691L29.1977 23.5504L28.681 36.1338ZM30.6097 23.5597L34.9923 24.0508L30.1216 35.4632L30.6097 23.5597ZM30.5749 22.1279L30.0468 17.3253H30.3179L34.4182 22.5581L30.5749 22.1279ZM28.1985 17.3257H28.6259L29.155 22.1291L24.0694 22.5951L28.1985 17.3257ZM25.9268 4.77022C25.9294 3.77952 26.3699 2.84171 27.1288 2.21038C27.8877 1.57876 28.8865 1.31937 29.8548 1.50187C30.8231 1.6847 31.6604 2.29057 32.1399 3.15583C32.6195 4.02108 32.6917 5.05562 32.3369 5.97966C31.9821 6.90371 31.2373 7.62112 30.3038 7.93792C29.3704 8.25472 28.3452 8.1379 27.5063 7.61914C26.5245 7.00863 25.9268 5.93089 25.9268 4.77022Z" fill="#E9E9E9"/>
<g id="u">
<path id="Vector_5" d="M11.463 30.4408C11.473 30.4602 11.4804 30.4804 11.4854 30.5014C11.4905 30.5222 11.4932 30.5441 11.4932 30.567C11.4932 30.6349 11.4744 30.6887 11.4366 30.7284C11.3987 30.7683 11.3475 30.7881 11.2829 30.7881C11.2181 30.7881 11.1669 30.7683 11.1291 30.7284C11.0912 30.6887 11.0723 30.6349 11.0723 30.567C11.0723 30.5441 11.0749 30.5222 11.08 30.5014C11.085 30.4804 11.0925 30.4602 11.1024 30.4408L11.1863 30.4408C11.1732 30.4604 11.1636 30.4797 11.1574 30.4986C11.1512 30.5176 11.1481 30.5375 11.1481 30.5585C11.1481 30.596 11.1601 30.6255 11.1841 30.6469C11.2079 30.6684 11.2409 30.6791 11.2829 30.6791C11.3247 30.6791 11.3577 30.6684 11.3817 30.6469C11.4055 30.6255 11.4174 30.596 11.4174 30.5585C11.4174 30.5375 11.4144 30.5176 11.4084 30.4986C11.4022 30.4797 11.3925 30.4604 11.3792 30.4408L11.463 30.4408Z" fill="#E9E9E9"/>
</g>
<g id="d">
<path id="Vector_6" d="M11.2642 30.131C11.2603 30.1398 11.2574 30.1485 11.2555 30.157C11.2535 30.1653 11.2524 30.1737 11.2524 30.1823C11.2524 30.2075 11.2605 30.2268 11.2766 30.2403C11.2926 30.2539 11.3155 30.2606 11.3453 30.2606L11.4857 30.2606L11.4857 30.3584L11.1813 30.3584L11.1813 30.2606L11.2313 30.2606C11.2114 30.2482 11.197 30.2338 11.1878 30.2175C11.1785 30.2012 11.1738 30.1816 11.1738 30.1588C11.1738 30.1556 11.1741 30.152 11.1744 30.1482C11.1747 30.1443 11.1752 30.1387 11.176 30.1314L11.2642 30.131Z" fill="#E9E9E9"/>
</g>
<g id="a">
<path id="Vector_7" d="M11.3326 29.7769L11.3605 29.7769L11.3605 30.0058C11.3834 30.0033 11.4004 29.9951 11.4118 29.9809C11.4232 29.9667 11.4289 29.9468 11.4289 29.9212C11.4289 29.9006 11.4259 29.8796 11.4199 29.8581C11.4136 29.8365 11.4045 29.8143 11.3922 29.7916L11.4671 29.7916C11.4758 29.8147 11.4823 29.8378 11.4866 29.8609C11.4911 29.884 11.4935 29.9072 11.4935 29.9303C11.4935 29.9857 11.4795 30.0288 11.4515 30.0596C11.4236 30.0902 11.3844 30.1055 11.3338 30.1055C11.2841 30.1055 11.2451 30.0904 11.2167 30.0602C11.1881 30.03 11.1738 29.9886 11.1738 29.9359C11.1738 29.8878 11.1884 29.8493 11.2173 29.8203C11.2461 29.7914 11.2846 29.7769 11.3326 29.7769ZM11.3003 29.8775C11.2819 29.8775 11.267 29.8829 11.2558 29.8937C11.2445 29.9046 11.2388 29.9187 11.2388 29.9362C11.2388 29.9552 11.244 29.9706 11.2546 29.9824C11.2652 29.9943 11.2804 30.0017 11.3003 30.0046L11.3003 29.8775Z" fill="#E9E9E9"/>
</g>
<g id="l">
<path id="Vector_8" d="M11.3487 29.5654C11.3487 29.5858 11.3521 29.6012 11.359 29.6116C11.3658 29.6218 11.376 29.6269 11.3894 29.6269C11.4018 29.6269 11.4116 29.6228 11.4186 29.6144C11.4254 29.6061 11.4289 29.5946 11.4289 29.58C11.4289 29.5615 11.4223 29.546 11.4093 29.5335C11.3961 29.5209 11.3796 29.5145 11.3599 29.5145L11.3487 29.5145L11.3487 29.5654ZM11.3121 29.4161L11.4857 29.4161L11.4857 29.5145L11.4407 29.5145C11.4591 29.5276 11.4726 29.5424 11.481 29.5588C11.4893 29.5753 11.4935 29.5953 11.4935 29.6188C11.4935 29.6505 11.4844 29.6762 11.4661 29.6959C11.4477 29.7157 11.4238 29.7256 11.3944 29.7256C11.3588 29.7256 11.3327 29.7133 11.3161 29.6887C11.2993 29.664 11.2909 29.6252 11.2909 29.5722L11.2909 29.5145L11.2832 29.5145C11.2679 29.5145 11.2567 29.5206 11.2496 29.5329C11.2424 29.5452 11.2388 29.5643 11.2388 29.59C11.2388 29.6111 11.2408 29.6306 11.245 29.6488C11.2492 29.6667 11.2554 29.6833 11.2636 29.6987L11.1894 29.6987C11.1844 29.678 11.1806 29.657 11.1779 29.636C11.1752 29.6147 11.1738 29.5935 11.1738 29.5722C11.1738 29.5171 11.1847 29.4773 11.2064 29.4529C11.228 29.4284 11.2632 29.4161 11.3121 29.4161Z" fill="#E9E9E9"/>
</g>
<g id="c">
<path id="Vector_9" d="M11.0957 29.2183L11.1821 29.2183L11.1821 29.1174L11.2516 29.1174L11.2516 29.2183L11.3809 29.2183C11.395 29.2183 11.4045 29.2155 11.4094 29.2098C11.4144 29.2042 11.4169 29.1931 11.4169 29.1764L11.4169 29.1261L11.4865 29.1261L11.4865 29.2098C11.4865 29.2486 11.4786 29.2761 11.4626 29.2923C11.4464 29.3084 11.4192 29.3163 11.3809 29.3163L11.2516 29.3163L11.2516 29.3647L11.1821 29.3647L11.1821 29.3163L11.0957 29.3163L11.0957 29.2183Z" fill="#E9E9E9"/>
</g>
<g id="a_2">
<path id="Vector_10" d="M11.3326 28.752L11.3605 28.752L11.3605 28.9809C11.3834 28.9784 11.4004 28.9702 11.4118 28.956C11.4232 28.9418 11.4289 28.9219 11.4289 28.8963C11.4289 28.8757 11.4259 28.8547 11.4199 28.8332C11.4136 28.8116 11.4045 28.7894 11.3922 28.7667L11.4671 28.7667C11.4758 28.7898 11.4823 28.8129 11.4866 28.836C11.4911 28.8591 11.4935 28.8822 11.4935 28.9054C11.4935 28.9608 11.4795 29.0039 11.4515 29.0347C11.4236 29.0653 11.3844 29.0806 11.3338 29.0806C11.2841 29.0806 11.2451 29.0655 11.2167 29.0353C11.1881 29.0051 11.1738 28.9637 11.1738 28.911C11.1738 28.8629 11.1884 28.8244 11.2173 28.7954C11.2461 28.7665 11.2846 28.752 11.3326 28.752ZM11.3003 28.8526C11.2819 28.8526 11.267 28.858 11.2558 28.8688C11.2445 28.8797 11.2388 28.8938 11.2388 28.9113C11.2388 28.9303 11.244 28.9456 11.2546 28.9575C11.2652 28.9694 11.2804 28.9768 11.3003 28.9797L11.3003 28.8526Z" fill="#E9E9E9"/>
</g>
<g id="g">
<path id="Vector_11" d="M11.2256 28.4698L11.0625 28.4698L11.0625 28.3715L11.4856 28.3715L11.4856 28.4698L11.4415 28.4698C11.4595 28.4832 11.4727 28.498 11.4809 28.5142C11.4892 28.5304 11.4933 28.5493 11.4933 28.5707C11.4933 28.6084 11.4784 28.6394 11.4486 28.6635C11.4188 28.6877 11.3805 28.6997 11.3337 28.6997C11.2867 28.6997 11.2483 28.6877 11.2184 28.6635C11.1886 28.6394 11.1737 28.6084 11.1737 28.5707C11.1737 28.5495 11.178 28.5307 11.1864 28.5145C11.195 28.4981 11.208 28.4832 11.2256 28.4698ZM11.4228 28.5342C11.4228 28.5134 11.4153 28.4975 11.4002 28.4864C11.3849 28.4754 11.3627 28.4699 11.3337 28.4699C11.3047 28.4699 11.2827 28.4754 11.2675 28.4864C11.2522 28.4975 11.2445 28.5134 11.2445 28.5342C11.2445 28.555 11.2522 28.571 11.2675 28.582C11.2827 28.5931 11.3047 28.5985 11.3337 28.5985C11.3627 28.5985 11.3849 28.5931 11.4002 28.582C11.4153 28.571 11.4228 28.555 11.4228 28.5342Z" fill="#E9E9E9"/>
</g>
<g id="k">
<path id="Vector_12" d="M11.4228 27.9193C11.4228 27.8983 11.4153 27.8823 11.4002 27.8712C11.3849 27.8602 11.3627 27.8547 11.3337 27.8547C11.3047 27.8547 11.2827 27.8602 11.2675 27.8712C11.2522 27.8823 11.2445 27.8983 11.2445 27.9193C11.2445 27.9404 11.2522 27.9565 11.2675 27.9677C11.2829 27.9788 11.3049 27.9843 11.3337 27.9843C11.3625 27.9843 11.3845 27.9788 11.3998 27.9677C11.4152 27.9565 11.4228 27.9404 11.4228 27.9193ZM11.2256 27.9843C11.208 27.9708 11.195 27.9559 11.1864 27.9396C11.178 27.9232 11.1737 27.9043 11.1737 27.8831C11.1737 27.8452 11.1886 27.8142 11.2184 27.79C11.2483 27.7659 11.2867 27.7538 11.3337 27.7538C11.3805 27.7538 11.4188 27.7659 11.4486 27.79C11.4784 27.8142 11.4933 27.8452 11.4933 27.8831C11.4933 27.9043 11.4892 27.9232 11.4809 27.9396C11.4725 27.9559 11.4593 27.9708 11.4415 27.9843L11.4856 27.9843L11.4856 28.082L11.0625 28.082L11.0625 27.9843L11.2256 27.9843Z" fill="#E9E9E9"/>
</g>
<g id="f">
<path id="Vector_13" d="M11.1807 27.7222L11.1807 27.6244L11.3872 27.542L11.1807 27.472L11.1807 27.3743L11.514 27.5029C11.5477 27.5159 11.5713 27.531 11.5848 27.5482C11.5985 27.5655 11.6053 27.5882 11.6053 27.6163L11.6053 27.6731L11.5413 27.6731L11.5413 27.6425C11.5413 27.6259 11.5386 27.6138 11.5332 27.6063C11.528 27.5987 11.5187 27.5927 11.5053 27.5885L11.4969 27.5857L11.1807 27.7222Z" fill="#E9E9E9"/>
</g>
<g id="j">
<path id="Vector_14" d="M11.4109 26.8704L11.4109 27.0347L11.4848 27.0609L11.4848 27.1665L11.0791 27.0153L11.0791 26.8901L11.4848 26.739L11.4848 26.8445L11.4109 26.8704ZM11.3357 27.0085L11.3357 26.897L11.1742 26.9526L11.3357 27.0085Z" fill="#E9E9E9"/>
</g>
<g id="e">
<path id="Vector_15" d="M11.3002 26.3813L11.4857 26.3813L11.4857 26.4797L11.3437 26.4797C11.3175 26.4797 11.2993 26.4803 11.2894 26.4816C11.2794 26.4828 11.2721 26.485 11.2673 26.4878C11.2611 26.4916 11.2563 26.4968 11.2527 26.5035C11.2492 26.5099 11.2474 26.5174 11.2474 26.5256C11.2474 26.5461 11.2554 26.5621 11.271 26.5737C11.2866 26.5854 11.3082 26.5912 11.336 26.5912L11.4857 26.5912L11.4857 26.689L11.1813 26.689L11.1813 26.5912L11.2257 26.5912C11.2082 26.5765 11.1951 26.5608 11.1866 26.5444C11.1781 26.5277 11.1738 26.5094 11.1738 26.4894C11.1738 26.454 11.1847 26.4272 11.2064 26.4088C11.228 26.3906 11.2592 26.3813 11.3002 26.3813Z" fill="#E9E9E9"/>
</g>
<g id="c_2">
<path id="Vector_16" d="M11.0957 26.1836L11.1821 26.1836L11.1821 26.0827L11.2516 26.0827L11.2516 26.1836L11.3809 26.1836C11.395 26.1836 11.4045 26.1808 11.4094 26.1752C11.4144 26.1696 11.4169 26.1585 11.4169 26.1418L11.4169 26.0915L11.4865 26.0915L11.4865 26.1752C11.4865 26.2139 11.4786 26.2414 11.4626 26.2576C11.4464 26.2737 11.4192 26.2817 11.3809 26.2817L11.2516 26.2817L11.2516 26.3301L11.1821 26.3301L11.1821 26.2817L11.0957 26.2817L11.0957 26.1836Z" fill="#E9E9E9"/>
</g>
<g id="i">
<path id="Vector_17" d="M11.3001 25.7153L11.4856 25.7153L11.4856 25.8137L11.3442 25.8137C11.3175 25.8137 11.2992 25.8143 11.2893 25.8156C11.2793 25.8168 11.272 25.8189 11.2672 25.8218C11.261 25.8256 11.2562 25.8308 11.2526 25.8374C11.2491 25.8439 11.2473 25.8513 11.2473 25.8596C11.2473 25.8801 11.2552 25.8961 11.2709 25.9077C11.2865 25.9194 11.3081 25.9252 11.3359 25.9252L11.4856 25.9252L11.4856 26.0229L11.0625 26.0229L11.0625 25.9252L11.2256 25.9252C11.208 25.9104 11.195 25.8948 11.1864 25.8784C11.178 25.8617 11.1737 25.8434 11.1737 25.8234C11.1737 25.788 11.1846 25.7612 11.2063 25.7428C11.2279 25.7245 11.2591 25.7153 11.3001 25.7153Z" fill="#E9E9E9"/>
</g>
<g id="b">
<path id="Vector_18" d="M11.2434 25.4788C11.2434 25.5005 11.2512 25.5171 11.2667 25.5285C11.2822 25.54 11.3046 25.5456 11.3338 25.5456C11.363 25.5456 11.3854 25.54 11.4009 25.5285C11.4163 25.5171 11.4239 25.5005 11.4239 25.4788C11.4239 25.4576 11.4163 25.4413 11.4009 25.4301C11.3854 25.4187 11.363 25.4129 11.3338 25.4129C11.3046 25.4129 11.2822 25.4187 11.2667 25.4301C11.2512 25.4413 11.2434 25.4576 11.2434 25.4788ZM11.1738 25.4788C11.1738 25.4262 11.188 25.385 11.2164 25.3555C11.2446 25.3259 11.2837 25.3111 11.3338 25.3111C11.3837 25.3111 11.4229 25.3259 11.4512 25.3555C11.4794 25.385 11.4935 25.4262 11.4935 25.4788C11.4935 25.5318 11.4794 25.5731 11.4512 25.6028C11.4229 25.6326 11.3837 25.6475 11.3338 25.6475C11.2837 25.6475 11.2446 25.6326 11.2164 25.6028C11.188 25.5731 11.1738 25.5318 11.1738 25.4788Z" fill="#E9E9E9"/>
</g>
<g id="e_2">
<path id="Vector_19" d="M11.3002 24.9326L11.4857 24.9326L11.4857 25.031L11.3437 25.031C11.3175 25.031 11.2993 25.0316 11.2894 25.0329C11.2794 25.0341 11.2721 25.0362 11.2673 25.0391C11.2611 25.0429 11.2563 25.0481 11.2527 25.0547C11.2492 25.0612 11.2474 25.0686 11.2474 25.0769C11.2474 25.0974 11.2554 25.1134 11.271 25.125C11.2866 25.1367 11.3082 25.1425 11.336 25.1425L11.4857 25.1425L11.4857 25.2402L11.1813 25.2402L11.1813 25.1425L11.2257 25.1425C11.2082 25.1277 11.1951 25.1121 11.1866 25.0956C11.1781 25.079 11.1738 25.0607 11.1738 25.0407C11.1738 25.0053 11.1847 24.9784 11.2064 24.9601C11.228 24.9418 11.2592 24.9326 11.3002 24.9326Z" fill="#E9E9E9"/>
</g>
<g id="f_2">
<path id="Vector_20" d="M11.1807 24.8818L11.1807 24.7841L11.3872 24.7016L11.1807 24.6317L11.1807 24.5339L11.514 24.6626C11.5477 24.6756 11.5713 24.6906 11.5848 24.7079C11.5985 24.7252 11.6053 24.7479 11.6053 24.776L11.6053 24.8328L11.5413 24.8328L11.5413 24.8022C11.5413 24.7856 11.5386 24.7735 11.5332 24.766C11.528 24.7583 11.5187 24.7524 11.5053 24.7482L11.4969 24.7454L11.1807 24.8818Z" fill="#E9E9E9"/>
</g>
<g id="t">
<path id="Vector_21" d="M11.0791 24.2773L11.0791 24.1724L11.4056 24.1724L11.4056 23.9875L11.4848 23.9875L11.4848 24.2773L11.0791 24.2773Z" fill="#E9E9E9"/>
</g>
<g id="a_3">
<path id="Vector_22" d="M11.3326 23.6197L11.3605 23.6197L11.3605 23.8486C11.3834 23.8461 11.4004 23.8378 11.4118 23.8236C11.4232 23.8095 11.4289 23.7896 11.4289 23.764C11.4289 23.7434 11.4259 23.7224 11.4199 23.7009C11.4136 23.6793 11.4045 23.6571 11.3922 23.6344L11.4671 23.6344C11.4758 23.6575 11.4823 23.6806 11.4866 23.7037C11.4911 23.7268 11.4935 23.7499 11.4935 23.773C11.4935 23.8285 11.4795 23.8716 11.4515 23.9023C11.4236 23.9329 11.3844 23.9482 11.3338 23.9482C11.2841 23.9482 11.2451 23.9332 11.2167 23.903C11.1881 23.8728 11.1738 23.8314 11.1738 23.7787C11.1738 23.7306 11.1884 23.6921 11.2173 23.6631C11.2461 23.6342 11.2846 23.6197 11.3326 23.6197ZM11.3003 23.7203C11.2819 23.7203 11.267 23.7257 11.2558 23.7365C11.2445 23.7473 11.2388 23.7615 11.2388 23.779C11.2388 23.7979 11.244 23.8133 11.2546 23.8252C11.2652 23.8371 11.2804 23.8445 11.3003 23.8474L11.3003 23.7203Z" fill="#E9E9E9"/>
</g>
<g id="g_2">
<path id="Vector_23" d="M11.2256 23.338L11.0625 23.338L11.0625 23.2396L11.4856 23.2396L11.4856 23.338L11.4415 23.338C11.4595 23.3514 11.4727 23.3661 11.4809 23.3824C11.4892 23.3986 11.4933 23.4175 11.4933 23.4389C11.4933 23.4766 11.4784 23.5075 11.4486 23.5316C11.4188 23.5558 11.3805 23.5679 11.3337 23.5679C11.2867 23.5679 11.2483 23.5558 11.2184 23.5316C11.1886 23.5075 11.1737 23.4766 11.1737 23.4389C11.1737 23.4177 11.178 23.3989 11.1864 23.3827C11.195 23.3663 11.208 23.3514 11.2256 23.338ZM11.4228 23.4023C11.4228 23.3816 11.4153 23.3657 11.4002 23.3546C11.3849 23.3436 11.3627 23.338 11.3337 23.338C11.3047 23.338 11.2827 23.3436 11.2675 23.3546C11.2522 23.3657 11.2445 23.3816 11.2445 23.4023C11.2445 23.4232 11.2522 23.4391 11.2675 23.4501C11.2827 23.4612 11.3047 23.4667 11.3337 23.4667C11.3627 23.4667 11.3849 23.4612 11.4002 23.4501C11.4153 23.4391 11.4228 23.4232 11.4228 23.4023Z" fill="#E9E9E9"/>
</g>
<g id="b_2">
<path id="Vector_24" d="M11.2434 22.9998C11.2434 23.0215 11.2512 23.0381 11.2667 23.0495C11.2822 23.0609 11.3046 23.0666 11.3338 23.0666C11.363 23.0666 11.3854 23.0609 11.4009 23.0495C11.4163 23.0381 11.4239 23.0215 11.4239 22.9998C11.4239 22.9786 11.4163 22.9623 11.4009 22.9511C11.3854 22.9397 11.363 22.9339 11.3338 22.9339C11.3046 22.9339 11.2822 22.9397 11.2667 22.9511C11.2512 22.9623 11.2434 22.9786 11.2434 22.9998ZM11.1738 22.9998C11.1738 22.9472 11.188 22.906 11.2164 22.8765C11.2446 22.8469 11.2837 22.8321 11.3338 22.8321C11.3837 22.8321 11.4229 22.8469 11.4512 22.8765C11.4794 22.906 11.4935 22.9472 11.4935 22.9998C11.4935 23.0527 11.4794 23.094 11.4512 23.1238C11.4229 23.1536 11.3837 23.1685 11.3338 23.1685C11.2837 23.1685 11.2446 23.1536 11.2164 23.1238C11.188 23.094 11.1738 23.0527 11.1738 22.9998Z" fill="#E9E9E9"/>
</g>
<g id="h">
<path id="Vector_25" d="M11.3664 22.7642L11.1807 22.7642L11.1807 22.6658L11.2111 22.6658C11.2277 22.6658 11.2484 22.6659 11.2732 22.6661C11.2981 22.6663 11.3147 22.6664 11.3229 22.6664C11.3476 22.6664 11.3653 22.6658 11.3761 22.6645C11.3868 22.6631 11.3946 22.6609 11.3994 22.658C11.4058 22.6538 11.4108 22.6485 11.4143 22.642C11.4176 22.6356 11.4192 22.6282 11.4192 22.6199C11.4192 22.5995 11.4115 22.5835 11.3959 22.5718C11.3804 22.5601 11.3588 22.5543 11.331 22.5543L11.1807 22.5543L11.1807 22.4565L11.4851 22.4565L11.4851 22.5543L11.441 22.5543C11.4588 22.5691 11.472 22.5847 11.4804 22.6011C11.4886 22.6176 11.4928 22.6358 11.4928 22.6558C11.4928 22.691 11.4821 22.7179 11.4605 22.7364C11.439 22.7549 11.4077 22.7642 11.3664 22.7642Z" fill="#E9E9E9"/>
</g>
<g id="s">
<path id="Vector_26" d="M11.3295 22.285L11.1807 22.3953L11.1807 22.2919L11.2707 22.2291L11.1807 22.1657L11.1807 22.0623L11.3288 22.1726L11.4851 22.0567L11.4851 22.1604L11.3888 22.2291L11.4851 22.2972L11.4851 22.4009L11.3295 22.285Z" fill="#E9E9E9"/>
</g>
<g id="r">
<path id="Vector_27" d="M11.6191 30.568L11.6831 30.568L11.6831 30.622C11.6831 30.6358 11.6856 30.6455 11.6906 30.6511C11.6956 30.6565 11.7043 30.6592 11.7167 30.6592L11.7378 30.6592L11.7378 30.5755L11.8074 30.5755L11.8074 30.6592L12.0422 30.6592L12.0422 30.7569L11.8074 30.7569L11.8074 30.8057L11.7378 30.8057L11.7378 30.7569L11.7167 30.7569C11.6836 30.7569 11.6591 30.7477 11.6431 30.7291C11.6271 30.7106 11.6191 30.6818 11.6191 30.6426L11.6191 30.568Z" fill="#E9E9E9"/>
</g>
<g id="d_2">
<path id="Vector_28" d="M11.8199 30.298C11.816 30.3068 11.813 30.3154 11.8112 30.324C11.8092 30.3323 11.8081 30.3407 11.8081 30.3493C11.8081 30.3745 11.8161 30.3938 11.8323 30.4073C11.8483 30.4209 11.8711 30.4276 11.901 30.4276L12.0414 30.4276L12.0414 30.5254L11.7369 30.5254L11.7369 30.4276L11.787 30.4276C11.7671 30.4151 11.7526 30.4008 11.7435 30.3845C11.7342 30.3681 11.7295 30.3485 11.7295 30.3258C11.7295 30.3225 11.7297 30.319 11.7301 30.3152C11.7303 30.3113 11.7309 30.3057 11.7317 30.2983L11.8199 30.298Z" fill="#E9E9E9"/>
</g>
<g id="b_3">
<path id="Vector_29" d="M11.7991 30.1038C11.7991 30.1255 11.8068 30.1421 11.8224 30.1535C11.8379 30.165 11.8603 30.1706 11.8895 30.1706C11.9187 30.1706 11.941 30.165 11.9566 30.1535C11.9719 30.1421 11.9796 30.1255 11.9796 30.1038C11.9796 30.0826 11.9719 30.0663 11.9566 30.0551C11.941 30.0437 11.9187 30.0379 11.8895 30.0379C11.8603 30.0379 11.8379 30.0437 11.8224 30.0551C11.8068 30.0663 11.7991 30.0826 11.7991 30.1038ZM11.7295 30.1038C11.7295 30.0512 11.7437 30.01 11.772 29.9805C11.8002 29.9509 11.8394 29.9361 11.8895 29.9361C11.9394 29.9361 11.9785 29.9509 12.0069 29.9805C12.0351 30.01 12.0491 30.0512 12.0491 30.1038C12.0491 30.1568 12.0351 30.1981 12.0069 30.2278C11.9785 30.2576 11.9394 30.2725 11.8895 30.2725C11.8394 30.2725 11.8002 30.2576 11.772 30.2278C11.7437 30.1981 11.7295 30.1568 11.7295 30.1038Z" fill="#E9E9E9"/>
</g>
<g id="q">
<path id="Vector_30" d="M11.7876 29.581C11.7688 29.5688 11.7543 29.5541 11.7444 29.537C11.7345 29.52 11.7295 29.5012 11.7295 29.4808C11.7295 29.4457 11.7404 29.4189 11.7621 29.4005C11.7837 29.382 11.8149 29.3727 11.8559 29.3727L12.0414 29.3727L12.0414 29.4711L11.8826 29.4711L11.8755 29.4711C11.8728 29.4709 11.8691 29.4708 11.8643 29.4708C11.8428 29.4708 11.8273 29.4741 11.8177 29.4805C11.808 29.4867 11.8031 29.4969 11.8031 29.5111C11.8031 29.5297 11.8108 29.544 11.8261 29.5542C11.8412 29.5644 11.8632 29.5696 11.892 29.5698L12.0414 29.5698L12.0414 29.6682L11.8826 29.6682C11.8489 29.6682 11.8273 29.6711 11.8177 29.6769C11.808 29.6828 11.8031 29.6932 11.8031 29.7081C11.8031 29.7269 11.8108 29.7414 11.8261 29.7516C11.8412 29.7618 11.8631 29.7669 11.8916 29.7669L12.0414 29.7669L12.0414 29.8652L11.737 29.8652L11.737 29.7669L11.7814 29.7669C11.7642 29.7548 11.7512 29.7411 11.7425 29.7256C11.7338 29.71 11.7295 29.6928 11.7295 29.6741C11.7295 29.6529 11.7346 29.6341 11.7447 29.6179C11.7549 29.6016 11.7692 29.5894 11.7876 29.581Z" fill="#E9E9E9"/>
</g>
<g id="c_3">
<path id="Vector_31" d="M11.6514 28.9805L11.7377 28.9805L11.7377 28.8796L11.8073 28.8796L11.8073 28.9805L11.9365 28.9805C11.9507 28.9805 11.9601 28.9777 11.9651 28.972C11.9701 28.9664 11.9726 28.9553 11.9726 28.9386L11.9726 28.8884L12.0421 28.8884L12.0421 28.972C12.0421 29.0108 12.0342 29.0383 12.0182 29.0545C12.0021 29.0706 11.9749 29.0785 11.9365 29.0785L11.8073 29.0785L11.8073 29.127L11.7377 29.127L11.7377 29.0785L11.6514 29.0785L11.6514 28.9805Z" fill="#E9E9E9"/>
</g>
<g id="i_2">
<path id="Vector_32" d="M11.8568 28.5117L12.0422 28.5117L12.0422 28.6101L11.9009 28.6101C11.8742 28.6101 11.8558 28.6107 11.8459 28.612C11.836 28.6132 11.8287 28.6153 11.8238 28.6182C11.8176 28.622 11.8128 28.6272 11.8092 28.6338C11.8058 28.6403 11.804 28.6477 11.804 28.656C11.804 28.6765 11.8119 28.6925 11.8276 28.7041C11.8431 28.7158 11.8648 28.7216 11.8925 28.7216L12.0422 28.7216L12.0422 28.8193L11.6191 28.8193L11.6191 28.7216L11.7822 28.7216C11.7647 28.7068 11.7516 28.6912 11.7431 28.6747C11.7346 28.6581 11.7303 28.6398 11.7303 28.6198C11.7303 28.5844 11.7412 28.5575 11.763 28.5392C11.7846 28.5209 11.8158 28.5117 11.8568 28.5117Z" fill="#E9E9E9"/>
</g>
<g id="a_4">
<path id="Vector_33" d="M11.8882 28.1158L11.9162 28.1158L11.9162 28.3447C11.939 28.3422 11.9561 28.3339 11.9674 28.3197C11.9789 28.3056 11.9845 28.2857 11.9845 28.2601C11.9845 28.2395 11.9816 28.2185 11.9755 28.197C11.9693 28.1754 11.9601 28.1532 11.9479 28.1305L12.0227 28.1305C12.0314 28.1536 12.038 28.1767 12.0423 28.1998C12.0468 28.2229 12.0491 28.246 12.0491 28.2691C12.0491 28.3246 12.0352 28.3677 12.0072 28.3984C11.9792 28.429 11.94 28.4443 11.8895 28.4443C11.8398 28.4443 11.8008 28.4293 11.7724 28.3991C11.7438 28.3689 11.7295 28.3275 11.7295 28.2748C11.7295 28.2267 11.744 28.1882 11.773 28.1592C11.8018 28.1303 11.8402 28.1158 11.8882 28.1158ZM11.8559 28.2163C11.8375 28.2163 11.8227 28.2218 11.8115 28.2326C11.8002 28.2434 11.7944 28.2576 11.7944 28.2751C11.7944 28.294 11.7997 28.3094 11.8103 28.3213C11.8208 28.3332 11.836 28.3406 11.8559 28.3435L11.8559 28.2163Z" fill="#E9E9E9"/>
</g>
<g id="p">
<path id="Vector_34" d="M11.6367 27.8423L11.6367 27.7249L11.915 27.5765L11.6367 27.5765L11.6367 27.4769L12.0424 27.4769L12.0424 27.5943L11.7641 27.7427L12.0424 27.7427L12.0424 27.8423L11.6367 27.8423Z" fill="#E9E9E9"/>
</g>
<g id="b_4">
<path id="Vector_35" d="M11.7991 27.2327C11.7991 27.2544 11.8068 27.271 11.8224 27.2824C11.8379 27.2939 11.8603 27.2996 11.8895 27.2996C11.9187 27.2996 11.941 27.2939 11.9566 27.2824C11.9719 27.271 11.9796 27.2544 11.9796 27.2327C11.9796 27.2115 11.9719 27.1952 11.9566 27.184C11.941 27.1726 11.9187 27.1668 11.8895 27.1668C11.8603 27.1668 11.8379 27.1726 11.8224 27.184C11.8068 27.1952 11.7991 27.2115 11.7991 27.2327ZM11.7295 27.2327C11.7295 27.1801 11.7437 27.139 11.772 27.1094C11.8002 27.0798 11.8394 27.065 11.8895 27.065C11.9394 27.065 11.9785 27.0798 12.0069 27.1094C12.0351 27.139 12.0491 27.1801 12.0491 27.2327C12.0491 27.2857 12.0351 27.327 12.0069 27.3567C11.9785 27.3865 11.9394 27.4014 11.8895 27.4014C11.8394 27.4014 11.8002 27.3865 11.772 27.3567C11.7437 27.327 11.7295 27.2857 11.7295 27.2327Z" fill="#E9E9E9"/>
</g>
<g id="h_2">
<path id="Vector_36" d="M11.9231 26.9971L11.7373 26.9971L11.7373 26.8987L11.7677 26.8987C11.7844 26.8987 11.805 26.8988 11.8299 26.899C11.8547 26.8992 11.8713 26.8993 11.8796 26.8993C11.9043 26.8993 11.922 26.8987 11.9327 26.8974C11.9435 26.896 11.9513 26.8939 11.956 26.8909C11.9624 26.8867 11.9674 26.8814 11.9709 26.875C11.9742 26.8686 11.9759 26.8611 11.9759 26.8528C11.9759 26.8324 11.9681 26.8164 11.9526 26.8047C11.937 26.7931 11.9155 26.7872 11.8877 26.7872L11.7373 26.7872L11.7373 26.6894L12.0417 26.6894L12.0417 26.7872L11.9976 26.7872C12.0155 26.802 12.0286 26.8176 12.0371 26.834C12.0453 26.8505 12.0495 26.8687 12.0495 26.8887C12.0495 26.9239 12.0388 26.9508 12.0172 26.9693C11.9957 26.9879 11.9643 26.9971 11.9231 26.9971Z" fill="#E9E9E9"/>
</g>
<g id="e_3">
<path id="Vector_37" d="M11.8559 26.2881L12.0414 26.2881L12.0414 26.3865L11.8994 26.3865C11.8732 26.3865 11.855 26.3871 11.845 26.3883C11.8351 26.3896 11.8278 26.3917 11.823 26.3946C11.8168 26.3983 11.812 26.4036 11.8084 26.4102C11.8049 26.4167 11.8031 26.4241 11.8031 26.4324C11.8031 26.4528 11.811 26.4688 11.8267 26.4805C11.8422 26.4922 11.8639 26.498 11.8916 26.498L12.0414 26.498L12.0414 26.5957L11.7369 26.5957L11.7369 26.498L11.7814 26.498C11.7638 26.4832 11.7508 26.4676 11.7422 26.4511C11.7338 26.4345 11.7295 26.4161 11.7295 26.3961C11.7295 26.3608 11.7404 26.3339 11.7621 26.3156C11.7837 26.2973 11.8149 26.2881 11.8559 26.2881Z" fill="#E9E9E9"/>
</g>
<g id="o">
<path id="Vector_38" d="M11.6367 25.9976L11.6367 25.823C11.6367 25.7711 11.6482 25.7314 11.6712 25.7037C11.694 25.6758 11.7266 25.6618 11.7691 25.6618C11.8115 25.6618 11.8442 25.6758 11.8672 25.7037C11.8902 25.7314 11.9017 25.7711 11.9017 25.823L11.9017 25.8926L12.0424 25.8926L12.0424 25.9976L11.6367 25.9976ZM11.7125 25.8926L11.8259 25.8926L11.8259 25.8342C11.8259 25.8138 11.8209 25.7982 11.811 25.7871C11.801 25.7758 11.7871 25.7702 11.769 25.7702C11.7509 25.7702 11.7369 25.7758 11.7271 25.7871C11.7174 25.7982 11.7125 25.8138 11.7125 25.8342L11.7125 25.8926Z" fill="#E9E9E9"/>
</g>
<g id="d_3">
<path id="Vector_39" d="M11.8199 25.3649C11.816 25.3737 11.813 25.3823 11.8112 25.3909C11.8092 25.3992 11.8081 25.4076 11.8081 25.4161C11.8081 25.4414 11.8161 25.4607 11.8323 25.4742C11.8483 25.4878 11.8711 25.4945 11.901 25.4945L12.0414 25.4945L12.0414 25.5923L11.7369 25.5923L11.7369 25.4945L11.787 25.4945C11.7671 25.482 11.7526 25.4677 11.7435 25.4514C11.7342 25.435 11.7295 25.4154 11.7295 25.3927C11.7295 25.3894 11.7297 25.3859 11.7301 25.3821C11.7303 25.3782 11.7309 25.3726 11.7317 25.3652L11.8199 25.3649Z" fill="#E9E9E9"/>
</g>
<g id="b_5">
<path id="Vector_40" d="M11.7991 25.1702C11.7991 25.1919 11.8068 25.2085 11.8224 25.2199C11.8379 25.2314 11.8603 25.2371 11.8895 25.2371C11.9187 25.2371 11.941 25.2314 11.9566 25.2199C11.9719 25.2085 11.9796 25.1919 11.9796 25.1702C11.9796 25.149 11.9719 25.1327 11.9566 25.1215C11.941 25.1101 11.9187 25.1043 11.8895 25.1043C11.8603 25.1043 11.8379 25.1101 11.8224 25.1215C11.8068 25.1327 11.7991 25.149 11.7991 25.1702ZM11.7295 25.1702C11.7295 25.1176 11.7437 25.0765 11.772 25.0469C11.8002 25.0173 11.8394 25.0025 11.8895 25.0025C11.9394 25.0025 11.9785 25.0173 12.0069 25.0469C12.0351 25.0765 12.0491 25.1176 12.0491 25.1702C12.0491 25.2232 12.0351 25.2645 12.0069 25.2942C11.9785 25.324 11.9394 25.3389 11.8895 25.3389C11.8394 25.3389 11.8002 25.324 11.772 25.2942C11.7437 25.2645 11.7295 25.2232 11.7295 25.1702Z" fill="#E9E9E9"/>
</g>
<g id="n">
<path id="Vector_41" d="M11.7378 24.9312L11.7378 24.8334L12.0366 24.8334C12.0774 24.8334 12.1085 24.8433 12.1301 24.8631C12.1516 24.8827 12.1624 24.9112 12.1624 24.9487L12.1624 24.9971L12.0984 24.9971L12.0984 24.9799C12.0984 24.9614 12.0943 24.9487 12.086 24.9418C12.0777 24.9348 12.0612 24.9312 12.0366 24.9312L11.7378 24.9312ZM11.6191 24.9312L11.6191 24.8334L11.6987 24.8334L11.6987 24.9312L11.6191 24.9312Z" fill="#E9E9E9"/>
</g>
<g id="a_5">
<path id="Vector_42" d="M11.8882 24.4341L11.9162 24.4341L11.9162 24.6631C11.939 24.6606 11.9561 24.6523 11.9674 24.6381C11.9789 24.6239 11.9845 24.604 11.9845 24.5784C11.9845 24.5578 11.9816 24.5368 11.9755 24.5153C11.9693 24.4937 11.9601 24.4715 11.9479 24.4488L12.0227 24.4488C12.0314 24.4719 12.038 24.495 12.0423 24.5182C12.0468 24.5413 12.0491 24.5644 12.0491 24.5875C12.0491 24.6429 12.0352 24.686 12.0072 24.7168C11.9792 24.7474 11.94 24.7627 11.8895 24.7627C11.8398 24.7627 11.8008 24.7476 11.7724 24.7174C11.7438 24.6873 11.7295 24.6458 11.7295 24.5931C11.7295 24.545 11.744 24.5065 11.773 24.4776C11.8018 24.4487 11.8402 24.4341 11.8882 24.4341ZM11.8559 24.5347C11.8375 24.5347 11.8227 24.5402 11.8115 24.5509C11.8002 24.5618 11.7944 24.5759 11.7944 24.5934C11.7944 24.6124 11.7997 24.6278 11.8103 24.6396C11.8208 24.6515 11.836 24.6589 11.8559 24.6618L11.8559 24.5347Z" fill="#E9E9E9"/>
</g>
<g id="m">
<path id="Vector_43" d="M11.7466 24.1132L11.8258 24.1132C11.8167 24.1263 11.8099 24.1396 11.8056 24.1531C11.8012 24.1665 11.7991 24.1803 11.7991 24.1947C11.7991 24.222 11.8071 24.2433 11.823 24.2587C11.8388 24.2739 11.8609 24.2815 11.8895 24.2815C11.9179 24.2815 11.94 24.2739 11.9559 24.2587C11.9717 24.2433 11.9796 24.222 11.9796 24.1947C11.9796 24.1795 11.9774 24.165 11.973 24.1513C11.9685 24.1375 11.9618 24.1249 11.9528 24.1132L12.0324 24.1132C12.038 24.1284 12.0421 24.1439 12.0448 24.1597C12.0477 24.1753 12.0491 24.1912 12.0491 24.2072C12.0491 24.2624 12.0351 24.3055 12.0069 24.3368C11.9788 24.3678 11.9396 24.3833 11.8895 24.3833C11.8391 24.3833 11.7999 24.3678 11.7717 24.3368C11.7436 24.3055 11.7295 24.2624 11.7295 24.2072C11.7295 24.1912 11.731 24.1753 11.7338 24.1597C11.7366 24.1441 11.7408 24.1286 11.7466 24.1132Z" fill="#E9E9E9"/>
</g>
<g id="c_4">
<path id="Vector_44" d="M11.6514 23.9214L11.7377 23.9214L11.7377 23.8205L11.8073 23.8205L11.8073 23.9214L11.9365 23.9214C11.9507 23.9214 11.9601 23.9186 11.9651 23.913C11.9701 23.9073 11.9726 23.8963 11.9726 23.8795L11.9726 23.8293L12.0421 23.8293L12.0421 23.913C12.0421 23.9517 12.0342 23.9792 12.0182 23.9954C12.0021 24.0115 11.9749 24.0195 11.9365 24.0195L11.8073 24.0195L11.8073 24.0679L11.7377 24.0679L11.7377 24.0195L11.6514 24.0195L11.6514 23.9214Z" fill="#E9E9E9"/>
</g>
</g>
</g>
<defs>
<clipPath id="clip0_128_3677">
<rect width="40" height="40" fill="white" transform="translate(0.5)"/>
</clipPath>
</defs>
</svg>
