<svg width="59" height="41" viewBox="0 0 59 41" fill="none" xmlns="http://www.w3.org/2000/svg">
<g clip-path="url(#clip0_126_2868)">
<path d="M17.5578 5.12337C17.4146 5.03819 17.2442 4.99316 17.0698 4.99316H12.9064V6.2014L26.4721 6.46642H44.0515L44.0508 4.99316H39.2529C39.079 4.99316 38.9085 5.03819 38.7649 5.12337L38.1883 5.46369C38.1047 5.51322 37.9929 5.51322 37.9097 5.46369L37.3332 5.12337C37.1899 5.03819 37.0195 4.99316 36.8451 4.99316H28.9451C28.7611 4.99316 28.5916 5.08247 28.5083 5.22317L27.927 6.2014C27.8363 6.35486 27.5809 6.35486 27.4902 6.2014L26.9089 5.22317C26.8252 5.08134 26.6561 4.99316 26.4721 4.99316H19.4776C19.3036 4.99316 19.1332 5.03819 18.9895 5.12337L18.413 5.46369C18.3293 5.51322 18.2176 5.51322 18.1344 5.46369L17.5578 5.12337Z" fill="#E9E9E9"/>
<path d="M39.2543 36.0049H44.0518V34.7967H33.2588C33.1681 34.6432 32.9127 34.6432 32.822 34.7967H12.9064V35.8747L17.07 36.0046C17.2439 36.0046 17.4144 35.9595 17.5581 35.8744L18.1346 35.534C18.2183 35.4845 18.33 35.4845 18.4132 35.534L18.9897 35.8744C19.133 35.9595 19.3034 36.0046 19.4778 36.0046L31.8039 36.0049C31.9879 36.0049 32.1575 35.9156 32.2407 35.7749L32.822 34.7967H33.2588L33.8402 35.7749C33.9238 35.9168 34.0929 36.0049 34.2769 36.0049H36.8465C37.0204 36.0049 37.1908 35.9599 37.3345 35.8747L37.9111 35.5344C37.9947 35.4849 38.1064 35.4849 38.1897 35.5344L38.7662 35.8747C38.9095 35.9599 39.0799 36.0049 39.2543 36.0049Z" fill="#E9E9E9"/>
<path fill-rule="evenodd" clip-rule="evenodd" d="M1.62199 2.97489H0.920165C0.412421 2.97489 0.000411034 3.32797 0.000411034 3.76284V37.2372C0.000411034 37.6721 0.412652 38.0251 0.920396 38.0251L1.62222 38.0248V39.1373C1.62222 39.7455 2.20003 40.2404 2.91017 40.2404H10.9328C11.6429 40.2404 12.2207 39.7455 12.2207 39.1373V38.0248H12.9225C13.4303 38.0248 13.8425 37.6717 13.8425 37.2368V36.0046V33.4074H12.9841V34.5318H0.858344V28.4722L12.9841 28.602V31.5669H13.8427L13.8428 10.8128C13.8428 10.6102 13.65 10.4451 13.4134 10.4451C13.1769 10.4451 12.9841 10.6102 12.9841 10.8128V12.9074H0.858344V6.46727H12.9841V8.35082C12.9841 8.55342 13.1769 8.71853 13.4134 8.71853C13.65 8.71853 13.8428 8.55343 13.8428 8.35082V7.5471L13.8423 3.76284C13.8423 3.32797 13.43 2.97489 12.9223 2.97489H12.2205V1.86238C12.2205 1.25418 11.6427 0.759277 10.9325 0.759277H2.90994C2.19983 0.759277 1.62199 1.25416 1.62199 1.86238V2.97489ZM11.3619 1.86238C11.3619 1.65976 11.1691 1.49467 10.9325 1.49467H2.90994C2.67337 1.49467 2.48062 1.65977 2.48062 1.86238V2.97489H11.3618L11.3619 1.86238ZM2.91053 39.5053C2.67397 39.5053 2.48121 39.3403 2.48121 39.1376L2.48123 38.0251H11.3625V39.1376C11.3625 39.3403 11.1697 39.5053 10.9331 39.5053H2.91053Z" fill="#E9E9E9"/>
<path fill-rule="evenodd" clip-rule="evenodd" d="M44.0507 3.76284V4.99322L44.0514 7.5471V30.1874C44.0514 30.39 44.2442 30.5551 44.4807 30.5551C44.7173 30.5551 44.9101 30.39 44.9101 30.1874V6.46648H58.1421V34.5329L44.9101 34.5325V32.649C44.9101 32.4464 44.7173 32.2813 44.4807 32.2813C44.2442 32.2813 44.0514 32.4464 44.0514 32.649L44.0516 36.005V37.2372C44.0516 37.6721 44.4639 38.0251 44.9716 38.0251H45.6734V39.1377C45.6734 39.7458 46.2513 40.2408 46.9614 40.2408H56.0902C56.8003 40.2408 57.3782 39.7459 57.3782 39.1377V38.0251H58.08C58.5878 38.0251 59 37.6721 59 37.2372V3.76284C59 3.32797 58.5878 2.97489 58.08 2.97489H57.3782V1.86238C57.3782 1.25418 56.8004 0.759277 56.0902 0.759277H46.96C46.2499 0.759277 45.6721 1.25415 45.6721 1.86238L45.6725 2.97489H44.9707C44.463 2.97489 44.0507 3.32797 44.0507 3.76284ZM56.5202 1.86238C56.5202 1.65976 56.3275 1.49467 56.0909 1.49467H46.9621C46.7255 1.49467 46.5327 1.65977 46.5327 1.86238V2.97489H56.5202L56.5202 1.86238ZM46.9621 39.5053C46.7255 39.5053 46.5328 39.3403 46.5328 39.1376L46.5328 38.0251H56.5203V39.1376C56.5203 39.3402 56.3275 39.5053 56.0909 39.5053H46.9621Z" fill="#E9E9E9"/>
<path d="M20.2816 13.6667C20.4848 13.6667 20.6504 13.7902 20.6504 13.9416V27.0586C20.6504 27.21 20.4848 27.3334 20.2816 27.3334C20.0785 27.3334 19.9129 27.21 19.9129 27.0586V13.9416C19.9129 13.7899 20.0773 13.6667 20.2816 13.6667Z" fill="#E9E9E9"/>
<path d="M28.3939 14.426C28.5971 14.426 28.7627 14.5307 28.7627 14.6591V27.1003C28.7627 27.2288 28.5971 27.3334 28.3939 27.3334C28.1908 27.3334 28.0252 27.2288 28.0252 27.1003V14.6591C28.0252 14.5307 28.1896 14.426 28.3939 14.426Z" fill="#E9E9E9"/>
<path d="M37.9809 15.1853C38.1841 15.1853 38.3496 15.2777 38.3496 15.391V26.3685C38.3496 26.4818 38.184 26.5742 37.9809 26.5742C37.7777 26.5742 37.6121 26.4818 37.6121 26.3685V15.391C37.6121 15.2776 37.7773 15.1853 37.9809 15.1853Z" fill="#E9E9E9"/>
<path d="M33.712 21.8241C33.6636 21.9472 33.5655 22.0185 33.4642 22.0185C33.4229 22.0185 33.3802 22.0063 33.3406 21.9813C33.2036 21.895 33.1482 21.6845 33.2161 21.5112L34.1372 19.1756C34.2054 19.0024 34.3717 18.9322 34.5087 19.0181C34.6456 19.1044 34.701 19.3149 34.6331 19.4882L33.712 21.8241Z" fill="#E9E9E9"/>
<path d="M24.1798 21.9835C24.1405 22.0074 24.0987 22.0185 24.0572 22.0185C23.953 22.0185 23.8536 21.9464 23.8046 21.8216L22.8914 19.4841C22.8232 19.3104 22.8816 19.1018 23.0214 19.0169C23.1608 18.932 23.3284 19.0048 23.3965 19.1788L24.3098 21.5171C24.3771 21.6901 24.3195 21.8997 24.1798 21.9835Z" fill="#E9E9E9"/>
<path d="M23.8128 19.2242C23.881 19.0076 24.0474 18.9199 24.1844 19.0273C24.3214 19.1351 24.3768 19.3983 24.3089 19.6149L23.388 22.5347C23.3396 22.6887 23.2414 22.7777 23.1401 22.7777C23.0988 22.7777 23.056 22.7625 23.0164 22.7312C22.8794 22.6233 22.824 22.3602 22.8919 22.1436L23.8128 19.2242Z" fill="#E9E9E9"/>
<path d="M33.3452 19.0164C33.4847 18.9326 33.6522 19.0043 33.7204 19.1784L34.6336 21.5163C34.7018 21.69 34.6434 21.8986 34.5036 21.9835C34.4644 22.0074 34.4226 22.0185 34.381 22.0185C34.2768 22.0185 34.1774 21.9464 34.1285 21.8216L33.2152 19.4837C33.1479 19.31 33.2055 19.1003 33.3452 19.0164Z" fill="#E9E9E9"/>
<path d="M8.04923 34.7492C8.07 34.7564 8.09207 34.7622 8.115 34.7661C8.13707 34.77 8.16 34.7721 8.18423 34.7721C8.25822 34.7721 8.31706 34.7583 8.36077 34.73C8.4036 34.7011 8.4248 34.6623 8.4248 34.6133C8.4248 34.5637 8.4036 34.5249 8.36077 34.4967C8.31707 34.4678 8.25822 34.4534 8.18423 34.4534C8.16 34.4534 8.13707 34.4555 8.115 34.4594C8.09207 34.4636 8.07 34.469 8.04923 34.4762V34.54C8.07 34.5303 8.09077 34.5231 8.11154 34.5183C8.13144 34.5135 8.15264 34.5111 8.17557 34.5111C8.21625 34.5111 8.24826 34.5204 8.27249 34.5388C8.29586 34.5565 8.30711 34.5815 8.30711 34.6133C8.30711 34.6446 8.29586 34.6696 8.27249 34.6879C8.24826 34.7056 8.21625 34.7144 8.17557 34.7144C8.15264 34.7144 8.13144 34.7126 8.11154 34.7083C8.09077 34.7035 8.07 34.696 8.04923 34.6855V34.7492Z" fill="#E9E9E9"/>
<path d="M7.71247 34.5988C7.72199 34.5958 7.73107 34.5934 7.74016 34.5916C7.74968 34.5901 7.75876 34.5892 7.76785 34.5892C7.79554 34.5892 7.81718 34.5958 7.83189 34.6085C7.84573 34.6205 7.85266 34.6379 7.85266 34.6602V34.766H7.95996V34.5363H7.85266V34.5736C7.84011 34.5585 7.82496 34.5477 7.80766 34.5411C7.78948 34.5339 7.76785 34.5303 7.74362 34.5303H7.7315C7.72718 34.5303 7.72112 34.5309 7.7142 34.5315L7.71247 34.5988Z" fill="#E9E9E9"/>
<path d="M7.33074 34.6505V34.671H7.57824C7.57478 34.6887 7.56569 34.702 7.55055 34.7107C7.53584 34.7188 7.51421 34.7227 7.48651 34.7227C7.46358 34.7227 7.44065 34.7209 7.41728 34.7167C7.39435 34.7119 7.37055 34.7047 7.34633 34.695V34.7516C7.37056 34.7588 7.39565 34.7642 7.42075 34.7672C7.44628 34.7702 7.47094 34.772 7.49517 34.772C7.55531 34.772 7.60204 34.7618 7.63536 34.7407C7.66911 34.7191 7.68555 34.689 7.68555 34.6505C7.68555 34.6139 7.66954 34.5844 7.63709 34.5627C7.60377 34.5411 7.55877 34.5303 7.50208 34.5303C7.45016 34.5303 7.40862 34.5411 7.37747 34.5627C7.34632 34.5844 7.33074 34.6139 7.33074 34.6505ZM7.43805 34.6253C7.43805 34.6118 7.44454 34.6009 7.45709 34.5928C7.46877 34.5841 7.48392 34.5796 7.50209 34.5796C7.52286 34.5796 7.53973 34.5838 7.55228 34.5916C7.56526 34.5997 7.57305 34.6109 7.57651 34.6253L7.43805 34.6253Z" fill="#E9E9E9"/>
<path d="M7.10135 34.6626C7.12341 34.6626 7.14029 34.6656 7.15154 34.671C7.16192 34.6758 7.16711 34.6836 7.16711 34.6938C7.16711 34.7029 7.16322 34.7101 7.155 34.7155C7.14591 34.7203 7.13336 34.7227 7.11692 34.7227C7.09745 34.7227 7.08058 34.7179 7.06673 34.7083C7.05289 34.6987 7.04596 34.6863 7.04596 34.671V34.6626H7.10135ZM6.93865 34.6349V34.766H7.04596V34.7323C7.0598 34.7462 7.07625 34.7561 7.09442 34.7624C7.11173 34.7687 7.13336 34.772 7.15846 34.772C7.19307 34.772 7.22163 34.7654 7.24326 34.7516C7.26403 34.7371 7.27441 34.7191 7.27441 34.6975C7.27441 34.6704 7.26143 34.6502 7.23461 34.6373C7.20821 34.6247 7.16624 34.6181 7.10827 34.6181H7.04596V34.6133C7.04596 34.6012 7.05288 34.5928 7.06673 34.588C7.07971 34.5826 7.09961 34.5796 7.1273 34.5796C7.15067 34.5796 7.17187 34.5814 7.19134 34.5844C7.21124 34.5877 7.22898 34.5922 7.24499 34.5976V34.5423C7.22336 34.5384 7.20086 34.5357 7.1775 34.5339C7.15456 34.5315 7.13163 34.5303 7.10827 34.5303C7.04856 34.5303 7.00529 34.5387 6.97846 34.5555C6.95206 34.5718 6.93865 34.5982 6.93865 34.6349Z" fill="#E9E9E9"/>
<path d="M6.72532 34.4702V34.5364H6.61628V34.5881H6.72532V34.6867C6.72532 34.6972 6.72272 34.7044 6.71666 34.7083C6.70974 34.7117 6.69719 34.7132 6.67859 34.7132H6.62493V34.7661H6.71493C6.75777 34.7661 6.78762 34.7601 6.80493 34.748C6.82224 34.736 6.83089 34.7156 6.83089 34.6867V34.5881H6.88281V34.5364H6.83089V34.4702L6.72532 34.4702Z" fill="#E9E9E9"/>
<path d="M6.22137 34.6505V34.671H6.46887C6.46541 34.6887 6.45632 34.702 6.44118 34.7107C6.42646 34.7188 6.40483 34.7227 6.37714 34.7227C6.35421 34.7227 6.33128 34.7209 6.30791 34.7167C6.28498 34.7119 6.26118 34.7047 6.23695 34.695V34.7516C6.26118 34.7588 6.28628 34.7642 6.31137 34.7672C6.3369 34.7702 6.36156 34.772 6.38579 34.772C6.44594 34.772 6.49267 34.7618 6.52598 34.7407C6.55973 34.7191 6.57617 34.689 6.57617 34.6505C6.57617 34.6139 6.56016 34.5844 6.52771 34.5627C6.49439 34.5411 6.4494 34.5303 6.39271 34.5303C6.34079 34.5303 6.29925 34.5411 6.2681 34.5627C6.23694 34.5844 6.22137 34.6139 6.22137 34.6505ZM6.32868 34.6253C6.32868 34.6118 6.33517 34.6009 6.34771 34.5928C6.3594 34.5841 6.37454 34.5796 6.39271 34.5796C6.41348 34.5796 6.43036 34.5838 6.4429 34.5916C6.45588 34.5997 6.46367 34.6109 6.46713 34.6253L6.32868 34.6253Z" fill="#E9E9E9"/>
<path d="M5.91386 34.5699V34.446H5.80829V34.766H5.91386V34.7323C5.929 34.7461 5.94501 34.756 5.96232 34.7624C5.97963 34.7687 5.99996 34.772 6.0229 34.772C6.06443 34.772 6.09862 34.7609 6.12501 34.7383C6.15054 34.716 6.16309 34.6866 6.16309 34.6505C6.16309 34.6153 6.15054 34.5865 6.12501 34.5639C6.09862 34.5417 6.06443 34.5302 6.0229 34.5302C6.00126 34.5302 5.98136 34.5335 5.96405 34.5399C5.94588 34.5465 5.929 34.5564 5.91386 34.5699ZM5.98482 34.7191C5.96189 34.7191 5.94458 34.7137 5.9329 34.7022C5.92035 34.6902 5.91386 34.6731 5.91386 34.6505C5.91386 34.6289 5.92035 34.6126 5.9329 34.6012C5.94458 34.5892 5.96189 34.5832 5.98482 34.5832C6.00689 34.5832 6.02419 34.5892 6.03674 34.6012C6.04842 34.6126 6.05405 34.6289 6.05405 34.6505C6.05405 34.6731 6.04842 34.6902 6.03674 34.7022C6.02419 34.7137 6.00689 34.7191 5.98482 34.7191Z" fill="#E9E9E9"/>
<path d="M5.31956 34.7191C5.29663 34.7191 5.27932 34.7136 5.26764 34.7022C5.25509 34.6902 5.2486 34.6731 5.2486 34.6505C5.2486 34.6289 5.25509 34.6126 5.26764 34.6012C5.27932 34.5892 5.29663 34.5832 5.31956 34.5832C5.34163 34.5832 5.35893 34.5892 5.37148 34.6012C5.38316 34.6126 5.38879 34.6289 5.38879 34.6505C5.38879 34.6731 5.38316 34.6902 5.37148 34.7022C5.35893 34.7136 5.34163 34.7191 5.31956 34.7191ZM5.38879 34.5699C5.37494 34.5564 5.35937 34.5465 5.34206 34.5399C5.32389 34.5335 5.30312 34.5302 5.27975 34.5302C5.23951 34.5302 5.2062 34.5417 5.17937 34.5639C5.15298 34.5865 5.13956 34.6153 5.13956 34.6505C5.13956 34.6866 5.15297 34.7161 5.17937 34.7383C5.2062 34.7609 5.23951 34.772 5.27975 34.772C5.30312 34.772 5.32389 34.7687 5.34206 34.7624C5.35937 34.756 5.37494 34.7461 5.38879 34.7323V34.766H5.49609V34.446H5.38879V34.5699Z" fill="#E9E9E9"/>
<path d="M5.10547 34.5361H4.99989L4.9099 34.6913L4.83374 34.5361H4.72817L4.86836 34.7875C4.8822 34.8131 4.89864 34.8311 4.91682 34.8416C4.93542 34.8518 4.96008 34.8573 4.99124 34.8573H5.05182V34.8079H5.01893C5.00076 34.8079 4.98734 34.8058 4.97912 34.8019C4.97134 34.7977 4.96484 34.7911 4.96008 34.7815L4.95662 34.7743L5.10547 34.5361Z" fill="#E9E9E9"/>
<path d="M4.45703 34.5363H4.34973V34.766H4.45703V34.5363ZM4.45703 34.446H4.34973V34.5062H4.45703V34.446Z" fill="#E9E9E9"/>
<path d="M3.98095 34.5435V34.6024C3.99479 34.5961 4.00951 34.5913 4.02422 34.588C4.03936 34.585 4.0545 34.5832 4.06922 34.5832C4.0995 34.5832 4.12244 34.5892 4.13844 34.6012C4.15489 34.6133 4.16267 34.6298 4.16267 34.6505C4.16267 34.6722 4.15489 34.689 4.13844 34.7011C4.12244 34.7131 4.0995 34.7191 4.06922 34.7191C4.05321 34.7191 4.03763 34.7176 4.02249 34.7143C4.00777 34.7113 3.99393 34.7059 3.98095 34.6987V34.7588C3.99739 34.7636 4.01383 34.7666 4.03114 34.7684C4.04845 34.7708 4.06575 34.772 4.08306 34.772C4.1432 34.772 4.18993 34.7618 4.22325 34.7407C4.257 34.7191 4.27344 34.689 4.27344 34.6505C4.27344 34.613 4.257 34.5838 4.22325 34.5627C4.18993 34.5411 4.1432 34.5303 4.08306 34.5303C4.06575 34.5303 4.04845 34.5315 4.03114 34.5339C4.01383 34.5357 3.99739 34.5387 3.98095 34.5435Z" fill="#E9E9E9"/>
<path d="M3.73331 34.5832C3.75668 34.5832 3.77442 34.5892 3.78697 34.6012C3.79865 34.6127 3.80428 34.6289 3.80428 34.6505C3.80428 34.6731 3.79865 34.6902 3.78697 34.7023C3.77442 34.7137 3.75668 34.7191 3.73331 34.7191C3.71038 34.7191 3.69264 34.7137 3.67966 34.7023C3.66711 34.6902 3.66062 34.6731 3.66062 34.6505C3.66062 34.6289 3.66711 34.6127 3.67966 34.6012C3.69264 34.5892 3.71038 34.5832 3.73331 34.5832ZM3.73331 34.5303C3.67577 34.5303 3.6312 34.5411 3.60005 34.5627C3.56803 34.5838 3.55159 34.613 3.55159 34.6505C3.55159 34.689 3.56803 34.7191 3.60005 34.7407C3.6312 34.7618 3.67577 34.772 3.73331 34.772C3.79 34.772 3.83456 34.7618 3.86658 34.7407C3.89903 34.7191 3.91504 34.689 3.91504 34.6505C3.91504 34.613 3.89903 34.5838 3.86658 34.5627C3.83456 34.5411 3.78999 34.5303 3.73331 34.5303Z" fill="#E9E9E9"/>
<path d="M3.14058 34.6253V34.766H3.24788V34.659C3.24788 34.6391 3.24875 34.6253 3.24961 34.6181C3.25091 34.6103 3.25308 34.6045 3.25654 34.6012C3.26 34.5964 3.26606 34.5928 3.27384 34.5904C3.28077 34.5874 3.28856 34.5856 3.29634 34.5856C3.31971 34.5856 3.33745 34.5916 3.35 34.6036C3.36168 34.6157 3.3673 34.6322 3.3673 34.6529V34.766H3.47461V34.5363H3.3673V34.57C3.35259 34.5564 3.33572 34.5465 3.31711 34.5399C3.29894 34.5336 3.27904 34.5303 3.25827 34.5303C3.22019 34.5303 3.19164 34.5387 3.17173 34.5555C3.15096 34.5718 3.14058 34.5949 3.14058 34.6253Z" fill="#E9E9E9"/>
<path d="M2.82491 34.446V34.4942H2.88202C2.89716 34.4942 2.90798 34.4963 2.9149 34.5002C2.92096 34.5044 2.92356 34.5107 2.92356 34.5194V34.5362H2.83183V34.588H2.92356V34.766H3.02913V34.588H3.08105V34.5362H3.02913V34.5194C3.02913 34.4948 3.01961 34.4761 2.99971 34.4641C2.97894 34.4521 2.94736 34.446 2.90452 34.446L2.82491 34.446Z" fill="#E9E9E9"/>
<path d="M2.7793 34.5363H2.67199V34.766H2.7793V34.5363ZM2.7793 34.446H2.67199V34.5062H2.7793V34.446Z" fill="#E9E9E9"/>
<path d="M2.2409 34.6505V34.671H2.4884C2.48494 34.6887 2.47585 34.702 2.46071 34.7107C2.446 34.7188 2.42436 34.7227 2.39667 34.7227C2.37374 34.7227 2.35081 34.7209 2.32744 34.7167C2.30451 34.7119 2.28071 34.7047 2.25648 34.695V34.7516C2.28071 34.7588 2.30581 34.7642 2.3309 34.7672C2.35643 34.7702 2.38109 34.772 2.40533 34.772C2.46547 34.772 2.5122 34.7618 2.54551 34.7407C2.57926 34.7191 2.5957 34.689 2.5957 34.6505C2.5957 34.6139 2.57969 34.5844 2.54724 34.5627C2.51393 34.5411 2.46893 34.5303 2.41224 34.5303C2.36032 34.5303 2.31878 34.5411 2.28763 34.5627C2.25647 34.5844 2.2409 34.6139 2.2409 34.6505ZM2.34821 34.6253C2.34821 34.6118 2.3547 34.6009 2.36725 34.5928C2.37893 34.5841 2.39407 34.5796 2.41224 34.5796C2.43301 34.5796 2.44989 34.5838 2.46243 34.5916C2.47542 34.5997 2.4832 34.6109 2.48667 34.6253L2.34821 34.6253Z" fill="#E9E9E9"/>
<path d="M2.16113 34.446H2.05383V34.766H2.16113V34.446Z" fill="#E9E9E9"/>
<path d="M1.72636 34.5699V34.446H1.62079V34.766H1.72636V34.7323C1.7415 34.7461 1.75751 34.756 1.77482 34.7624C1.79213 34.7687 1.81246 34.772 1.8354 34.772C1.87693 34.772 1.91112 34.7609 1.93751 34.7383C1.96304 34.716 1.97559 34.6866 1.97559 34.6505C1.97559 34.6153 1.96304 34.5865 1.93751 34.5639C1.91112 34.5417 1.87693 34.5302 1.8354 34.5302C1.81376 34.5302 1.79386 34.5335 1.77655 34.5399C1.75838 34.5465 1.7415 34.5564 1.72636 34.5699ZM1.79732 34.7191C1.77439 34.7191 1.75708 34.7137 1.7454 34.7022C1.73285 34.6902 1.72636 34.6731 1.72636 34.6505C1.72636 34.6289 1.73285 34.6126 1.7454 34.6012C1.75708 34.5892 1.77439 34.5832 1.79732 34.5832C1.81939 34.5832 1.83669 34.5892 1.84924 34.6012C1.86092 34.6126 1.86655 34.6289 1.86655 34.6505C1.86655 34.6731 1.86092 34.6902 1.84924 34.7022C1.83669 34.7137 1.81939 34.7191 1.79732 34.7191Z" fill="#E9E9E9"/>
<path d="M8.18623 34.8669V34.9151H8.24335C8.25849 34.9151 8.26931 34.9172 8.27623 34.9211C8.28229 34.9253 8.28489 34.9316 8.28489 34.9403V34.9571H8.19316V35.0089H8.28489V35.1869H8.39046V35.0089H8.44238V34.9571H8.39046V34.9403C8.39046 34.9157 8.38094 34.897 8.36104 34.885C8.34027 34.873 8.30868 34.8669 8.26585 34.8669L8.18623 34.8669Z" fill="#E9E9E9"/>
<path d="M7.89313 35.0197C7.90265 35.0167 7.91174 35.0143 7.92082 35.0125C7.93034 35.011 7.93943 35.0101 7.94851 35.0101C7.97621 35.0101 7.99784 35.0167 8.01255 35.0293C8.0264 35.0414 8.03332 35.0588 8.03332 35.0811V35.1869H8.14062V34.9572H8.03332V34.9945C8.02077 34.9794 8.00563 34.9686 7.98832 34.962C7.97015 34.9548 7.94851 34.9512 7.92428 34.9512H7.91217C7.90784 34.9512 7.90178 34.9518 7.89486 34.9524L7.89313 35.0197Z" fill="#E9E9E9"/>
<path d="M7.68449 35.0041C7.70785 35.0041 7.72559 35.0101 7.73814 35.0221C7.74982 35.0336 7.75545 35.0498 7.75545 35.0714C7.75545 35.094 7.74982 35.1111 7.73814 35.1232C7.72559 35.1346 7.70785 35.14 7.68449 35.14C7.66155 35.14 7.64381 35.1346 7.63083 35.1232C7.61829 35.1111 7.61179 35.094 7.61179 35.0714C7.61179 35.0498 7.61829 35.0336 7.63083 35.0221C7.64381 35.0101 7.66155 35.0041 7.68449 35.0041ZM7.68449 34.9512C7.62694 34.9512 7.58237 34.962 7.55122 34.9836C7.5192 35.0047 7.50276 35.0339 7.50276 35.0714C7.50276 35.1099 7.5192 35.14 7.55122 35.1616C7.58238 35.1827 7.62694 35.1929 7.68449 35.1929C7.74117 35.1929 7.78573 35.1827 7.81775 35.1616C7.8502 35.14 7.86621 35.1099 7.86621 35.0714C7.86621 35.0339 7.8502 35.0047 7.81775 34.9836C7.78573 34.962 7.74117 34.9512 7.68449 34.9512Z" fill="#E9E9E9"/>
<path d="M7.11771 34.9945C7.10516 34.9809 7.08959 34.9704 7.07098 34.9632C7.05281 34.9554 7.03204 34.9512 7.00867 34.9512C6.9719 34.9512 6.94377 34.9596 6.92387 34.9764C6.9031 34.9927 6.89271 35.0158 6.89271 35.0462V35.1869H7.00002V35.0666C6.99915 35.0651 6.99829 35.0636 6.99829 35.0618V35.0534C6.99829 35.0366 7.00175 35.0245 7.00867 35.0173C7.0156 35.0101 7.02685 35.0065 7.04156 35.0065C7.06233 35.0065 7.07877 35.0125 7.09002 35.0245C7.1004 35.036 7.1056 35.0522 7.1056 35.0738V35.1869H7.2129V35.0666C7.2129 35.0411 7.21636 35.0245 7.22328 35.0173C7.22934 35.0101 7.24016 35.0065 7.25617 35.0065C7.27607 35.0065 7.29165 35.0125 7.3029 35.0245C7.31328 35.036 7.31848 35.0522 7.31848 35.0739V35.1869H7.42578V34.9572H7.31848V34.9909C7.30593 34.9773 7.29165 34.9674 7.27521 34.9608C7.2579 34.9545 7.23886 34.9512 7.21809 34.9512C7.19516 34.9512 7.17483 34.9554 7.15752 34.9632C7.14021 34.9704 7.12723 34.9809 7.11771 34.9945Z" fill="#E9E9E9"/>
<path d="M6.4675 34.8911V34.9573H6.35847V35.009H6.4675V35.1076C6.4675 35.1181 6.46491 35.1253 6.45885 35.1292C6.45193 35.1326 6.43938 35.1341 6.42077 35.1341H6.36712V35.187H6.45712C6.49995 35.187 6.52981 35.181 6.54712 35.1689C6.56442 35.1569 6.57308 35.1365 6.57308 35.1076V35.009H6.625V34.9573H6.57308V34.8911L6.4675 34.8911Z" fill="#E9E9E9"/>
<path d="M5.95991 35.0461V35.1869H6.06722V35.0798C6.06722 35.06 6.06808 35.0461 6.06895 35.0389C6.07025 35.0311 6.07241 35.0254 6.07587 35.0221C6.07933 35.0173 6.08539 35.0137 6.09318 35.0113C6.1001 35.0083 6.10789 35.0065 6.11568 35.0065C6.13904 35.0065 6.15678 35.0125 6.16933 35.0245C6.18102 35.0365 6.18664 35.0531 6.18664 35.0738V35.1869H6.29395V34.8669H6.18664V34.9908C6.17193 34.9773 6.15505 34.9674 6.13645 34.9608C6.11828 34.9544 6.09837 34.9511 6.0776 34.9511C6.03953 34.9511 6.01097 34.9596 5.99107 34.9764C5.9703 34.9926 5.95991 35.0158 5.95991 35.0461Z" fill="#E9E9E9"/>
<path d="M5.53289 35.0714V35.0919H5.78039C5.77693 35.1096 5.76784 35.1229 5.7527 35.1316C5.73799 35.1397 5.71635 35.1436 5.68866 35.1436C5.66573 35.1436 5.6428 35.1418 5.61943 35.1376C5.5965 35.1328 5.5727 35.1256 5.54847 35.1159V35.1725C5.5727 35.1797 5.5978 35.1851 5.6229 35.1881C5.64842 35.1911 5.67309 35.1929 5.69732 35.1929C5.75746 35.1929 5.80419 35.1827 5.8375 35.1616C5.87125 35.14 5.8877 35.1099 5.8877 35.0714C5.8877 35.0348 5.87169 35.0053 5.83923 34.9836C5.80592 34.962 5.76092 34.9512 5.70423 34.9512C5.65231 34.9512 5.61077 34.962 5.57962 34.9836C5.54847 35.0053 5.53289 35.0348 5.53289 35.0714ZM5.6402 35.0462C5.6402 35.0327 5.64669 35.0218 5.65924 35.0137C5.67092 35.005 5.68606 35.0005 5.70424 35.0005C5.72501 35.0005 5.74188 35.0047 5.75443 35.0125C5.76741 35.0206 5.7752 35.0318 5.77866 35.0462L5.6402 35.0462Z" fill="#E9E9E9"/>
<path d="M5.23633 34.8801H5.10826L4.94903 35.0906V34.8801H4.84V35.1868H4.96806L5.12729 34.9763V35.1868H5.23633V34.8801Z" fill="#E9E9E9"/>
<path d="M4.57706 35.0041C4.60043 35.0041 4.61817 35.0101 4.63072 35.0221C4.6424 35.0336 4.64803 35.0498 4.64803 35.0714C4.64803 35.094 4.6424 35.1111 4.63072 35.1232C4.61817 35.1346 4.60043 35.14 4.57706 35.14C4.55413 35.14 4.53639 35.1346 4.52341 35.1232C4.51086 35.1111 4.50437 35.094 4.50437 35.0714C4.50437 35.0498 4.51086 35.0336 4.52341 35.0221C4.53639 35.0101 4.55413 35.0041 4.57706 35.0041ZM4.57706 34.9512C4.51952 34.9512 4.47495 34.962 4.4438 34.9836C4.41178 35.0047 4.39534 35.0339 4.39534 35.0714C4.39534 35.1099 4.41178 35.14 4.4438 35.1616C4.47495 35.1827 4.51952 35.1929 4.57706 35.1929C4.63375 35.1929 4.67831 35.1827 4.71033 35.1616C4.74278 35.14 4.75879 35.1099 4.75879 35.0714C4.75879 35.0339 4.74278 35.0047 4.71033 34.9836C4.67831 34.962 4.63374 34.9512 4.57706 34.9512Z" fill="#E9E9E9"/>
<path d="M4.32129 35.0968V34.9573H4.21398V34.9801V35.027V35.0643C4.21398 35.083 4.21355 35.0965 4.21225 35.1052C4.21139 35.1133 4.20879 35.119 4.20533 35.1221C4.201 35.1269 4.19495 35.1311 4.18802 35.1341C4.1811 35.1365 4.17331 35.1377 4.16379 35.1377C4.14216 35.1377 4.12485 35.1317 4.11187 35.1196C4.09932 35.1076 4.09283 35.0914 4.09283 35.0703V34.9573H3.98726V35.187H4.09283V35.1533C4.10927 35.1672 4.12658 35.1771 4.14475 35.1834C4.16206 35.1897 4.18196 35.193 4.2036 35.193C4.24167 35.193 4.2711 35.1852 4.29187 35.169C4.31177 35.1521 4.32129 35.1281 4.32129 35.0968Z" fill="#E9E9E9"/>
<path d="M3.55269 35.0462V35.1869H3.65999V35.0799C3.65999 35.06 3.66086 35.0462 3.66172 35.039C3.66302 35.0311 3.66518 35.0254 3.66865 35.0221C3.67211 35.0173 3.67817 35.0137 3.68595 35.0113C3.69288 35.0083 3.70066 35.0065 3.70845 35.0065C3.73182 35.0065 3.74956 35.0125 3.76211 35.0245C3.77379 35.0366 3.77941 35.0531 3.77941 35.0738V35.1869H3.88672V34.9572H3.77941V34.9909C3.7647 34.9773 3.74783 34.9674 3.72922 34.9608C3.71105 34.9545 3.69115 34.9512 3.67038 34.9512C3.6323 34.9512 3.60374 34.9596 3.58384 34.9764C3.56307 34.9927 3.55269 35.0158 3.55269 35.0462Z" fill="#E9E9E9"/>
<path d="M3.23926 34.8801H3.05061C2.99436 34.8801 2.95109 34.8891 2.9208 34.9066C2.89095 34.9234 2.8758 34.9481 2.8758 34.98C2.8758 35.0121 2.89095 35.0371 2.9208 35.0545C2.95109 35.0714 2.99436 35.0798 3.05061 35.0798H3.12503V35.1868H3.23926L3.23926 34.8801ZM3.12503 34.9379V35.0233H3.06273C3.04109 35.0233 3.02422 35.0196 3.01254 35.0124C2.99999 35.0046 2.9935 34.9938 2.9935 34.98C2.9935 34.9664 2.99999 34.9559 3.01254 34.9487C3.02422 34.9415 3.04109 34.9379 3.06273 34.9379L3.12503 34.9379Z" fill="#E9E9E9"/>
<path d="M2.55329 35.0197C2.56281 35.0167 2.57189 35.0143 2.58098 35.0125C2.5905 35.011 2.59958 35.0101 2.60867 35.0101C2.63636 35.0101 2.658 35.0167 2.67271 35.0293C2.68655 35.0414 2.69348 35.0588 2.69348 35.0811V35.1869H2.80078V34.9572H2.69348V34.9945C2.68093 34.9794 2.66578 34.9686 2.64848 34.962C2.6303 34.9548 2.60867 34.9512 2.58444 34.9512H2.57232C2.568 34.9512 2.56194 34.9518 2.55502 34.9524L2.55329 35.0197Z" fill="#E9E9E9"/>
<path d="M2.34464 35.0041C2.36801 35.0041 2.38575 35.0101 2.3983 35.0221C2.40998 35.0336 2.4156 35.0498 2.4156 35.0714C2.4156 35.094 2.40998 35.1111 2.3983 35.1232C2.38575 35.1346 2.36801 35.14 2.34464 35.14C2.32171 35.14 2.30397 35.1346 2.29099 35.1232C2.27844 35.1111 2.27195 35.094 2.27195 35.0714C2.27195 35.0498 2.27844 35.0336 2.29099 35.0221C2.30397 35.0101 2.32171 35.0041 2.34464 35.0041ZM2.34464 34.9512C2.2871 34.9512 2.24253 34.962 2.21138 34.9836C2.17936 35.0047 2.16292 35.0339 2.16292 35.0714C2.16292 35.1099 2.17936 35.14 2.21138 35.1616C2.24253 35.1827 2.2871 35.1929 2.34464 35.1929C2.40132 35.1929 2.44589 35.1827 2.47791 35.1616C2.51036 35.14 2.52637 35.1099 2.52637 35.0714C2.52637 35.0339 2.51036 35.0047 2.47791 34.9836C2.44589 34.962 2.40132 34.9512 2.34464 34.9512Z" fill="#E9E9E9"/>
<path d="M2.08529 34.9571H1.97798V35.1833C1.97798 35.2136 1.98923 35.2368 2.01087 35.253C2.03164 35.2699 2.06236 35.2783 2.1026 35.2783H2.15625V35.229H2.13721C2.11774 35.229 2.10433 35.2257 2.0974 35.2193C2.08962 35.2136 2.08529 35.2016 2.08529 35.1833L2.08529 34.9571ZM2.08529 34.8669H1.97798V34.9271H2.08529V34.8669Z" fill="#E9E9E9"/>
<path d="M1.54754 35.0714V35.0919H1.79504C1.79158 35.1096 1.78249 35.1229 1.76735 35.1316C1.75264 35.1397 1.731 35.1436 1.70331 35.1436C1.68038 35.1436 1.65745 35.1418 1.63408 35.1376C1.61115 35.1328 1.58735 35.1256 1.56312 35.1159V35.1725C1.58735 35.1797 1.61245 35.1851 1.63754 35.1881C1.66307 35.1911 1.68773 35.1929 1.71197 35.1929C1.77211 35.1929 1.81884 35.1827 1.85215 35.1616C1.8859 35.14 1.90234 35.1099 1.90234 35.0714C1.90234 35.0348 1.88633 35.0053 1.85388 34.9836C1.82057 34.962 1.77557 34.9512 1.71888 34.9512C1.66696 34.9512 1.62542 34.962 1.59427 34.9836C1.56311 35.0053 1.54754 35.0348 1.54754 35.0714ZM1.65485 35.0462C1.65485 35.0327 1.66134 35.0218 1.67389 35.0137C1.68557 35.005 1.70071 35.0005 1.71888 35.0005C1.73965 35.0005 1.75653 35.0047 1.76908 35.0125C1.78206 35.0206 1.78984 35.0318 1.79331 35.0462L1.65485 35.0462Z" fill="#E9E9E9"/>
<path d="M1.1997 34.9644V35.0233C1.21354 35.017 1.22826 35.0122 1.24297 35.0089C1.25811 35.0059 1.27325 35.0041 1.28797 35.0041C1.31825 35.0041 1.34119 35.0101 1.35719 35.0221C1.37364 35.0342 1.38142 35.0507 1.38142 35.0714C1.38142 35.0931 1.37364 35.1099 1.35719 35.122C1.34119 35.134 1.31825 35.14 1.28797 35.14C1.27196 35.14 1.25638 35.1385 1.24124 35.1352C1.22652 35.1322 1.21268 35.1268 1.1997 35.1196V35.1797C1.21614 35.1845 1.23258 35.1875 1.24989 35.1893C1.2672 35.1917 1.2845 35.1929 1.30181 35.1929C1.36195 35.1929 1.40868 35.1827 1.442 35.1616C1.47575 35.14 1.49219 35.1099 1.49219 35.0714C1.49219 35.0339 1.47575 35.0047 1.442 34.9836C1.40868 34.962 1.36195 34.9512 1.30181 34.9512C1.2845 34.9512 1.2672 34.9524 1.24989 34.9548C1.23258 34.9566 1.21614 34.9596 1.1997 34.9644Z" fill="#E9E9E9"/>
<path d="M0.991917 34.8911V34.9573H0.882881V35.009H0.991917V35.1076C0.991917 35.1181 0.989321 35.1253 0.983264 35.1292C0.976341 35.1326 0.963793 35.1341 0.945188 35.1341H0.891534V35.187H0.981532C1.02437 35.187 1.05422 35.181 1.07153 35.1689C1.08884 35.1569 1.09749 35.1365 1.09749 35.1076V35.009H1.14941V34.9573H1.09749V34.8911L0.991917 34.8911Z" fill="#E9E9E9"/>
</g>
<defs>
<clipPath id="clip0_126_2868">
<rect width="59" height="41" fill="white" transform="matrix(-1 0 0 1 59 0)"/>
</clipPath>
</defs>
</svg>
