<svg width="37" height="32" viewBox="0 0 37 32" fill="none" xmlns="http://www.w3.org/2000/svg">
<g clip-path="url(#clip0_128_3986)">
<path fill-rule="evenodd" clip-rule="evenodd" d="M6.77511 0.157165L0.0287125 14.246C0.00304053 14.2984 -0.00509476 14.3576 0.00549636 14.4149C0.0160875 14.4722 0.0448494 14.5247 0.0875759 14.5646L18.308 31.9231C18.3597 31.9724 18.4287 32 18.5004 32C18.5721 32 18.641 31.9724 18.6928 31.9231L36.9132 14.5657C36.9559 14.5258 36.9847 14.4733 36.9952 14.416C37.0058 14.3586 36.9977 14.2995 36.972 14.2471L30.2256 0.158249C30.2039 0.110933 30.1688 0.0708501 30.1248 0.0427911C30.0807 0.0147322 30.0294 -0.000116069 29.9771 2.09732e-05H7.02582C6.97324 -0.000629455 6.92159 0.0138611 6.8771 0.0417447C6.83262 0.0696283 6.79719 0.109714 6.77511 0.157165Z" fill="#50AF95"/>
<path fill-rule="evenodd" clip-rule="evenodd" d="M20.8408 15.6927C20.71 15.7024 20.0342 15.7425 18.5266 15.7425C17.3275 15.7425 16.4762 15.7068 16.1775 15.6927C11.5437 15.49 8.08488 14.688 8.08488 13.7278C8.08488 12.7676 11.5437 11.9667 16.1775 11.7608V14.894C16.4805 14.9156 17.3482 14.9666 18.5473 14.9666C19.9862 14.9666 20.7067 14.907 20.8364 14.895V11.763C25.4605 11.9678 28.9116 12.7698 28.9116 13.7278C28.9116 14.6859 25.4616 15.4878 20.8364 15.6916L20.8408 15.6927ZM20.8408 11.4389V8.63527H27.294V4.35986H9.72434V8.63527H16.1764V11.4379C10.9321 11.6774 6.98828 12.7102 6.98828 13.9478C6.98828 15.1855 10.9321 16.2172 16.1764 16.4578V25.4421H20.8397V16.4546C26.072 16.215 30.0093 15.1833 30.0093 13.9468C30.0093 12.7102 26.0753 11.6785 20.8397 11.4379L20.8408 11.4389Z" fill="white"/>
</g>
<defs>
<clipPath id="clip0_128_3986">
<rect width="37" height="32" fill="white"/>
</clipPath>
</defs>
</svg>
